# xmcd
#
# Track frame offsets:
#   150
#   18506
#   31710
#   50184
#   68893
#   84301
#   101858
#   124997
#   141745
#   157339
#   171520
#   184861
#
# Disc length: 2659 seconds
#
# Revision: 0
# Processed by: cddbd v1.4PL0 Copyright (c) Steve Scherf et al.
# Submitted via: uFREEDB 1.6.0
#
DISCID=b70a610c
DTITLE=Jackson, Alan - Drive
DYEAR=2002
DGENRE=Country
TTITLE0=Drive (For Daddy Gene)
TTITLE1=A Little Bluer Than That
TTITLE2=Bring On The Night
TTITLE3=Work In Progress
TTITLE4=The Sounds
TTITLE5=Designated Drinker
TTITLE6=Where Were You (When The World Stopped Turning)
TTITLE7=That'd Be Alright
TTITLE8=Once In A Lifetime Love
TTITLE9=When Love Comes Around
TTITLE10=I Slipped And Fell In Love
TTITLE11=First Love
EXTD=
EXTT0=
EXTT1=
EXTT2=
EXTT3=
EXTT4=
EXTT5=
EXTT6=
EXTT7=
EXTT8=
EXTT9=
EXTT10=
EXTT11=
PLAYORDER=
